<svg width="30" height="30" viewBox="0 0 30 30" fill="none" xmlns="http://www.w3.org/2000/svg">
<path fill-rule="evenodd" clip-rule="evenodd" d="M0 0H30V30H0V0Z" fill="white"/>
<path fill-rule="evenodd" clip-rule="evenodd" d="M1.32053 27.6566H1.23477C1.23477 27.6138 1.21329 27.5493 1.21329 27.5277C1.21329 27.5064 1.21329 27.4636 1.14886 27.4636H1.01999V27.6566H0.955558V27.2058H1.14886C1.23477 27.2058 1.29905 27.2275 1.29905 27.3131C1.29905 27.3775 1.27757 27.3991 1.25625 27.4203C1.27773 27.4419 1.29905 27.4634 1.29905 27.5064V27.5921C1.29905 27.6138 1.29905 27.6138 1.32053 27.6138V27.6566ZM1.23477 27.3347C1.23477 27.2703 1.19182 27.2703 1.17034 27.2703H1.01999V27.3991H1.14886C1.19182 27.3991 1.23477 27.3775 1.23477 27.3347V27.3347ZM1.59974 27.4205C1.59974 27.163 1.38512 26.9481 1.1059 26.9481C0.848324 26.9481 0.633545 27.163 0.633545 27.4205C0.633545 27.6995 0.848324 27.9145 1.1059 27.9145C1.38496 27.9143 1.59974 27.6995 1.59974 27.4205ZM1.53531 27.4205C1.53531 27.6567 1.34216 27.8284 1.1059 27.8284C0.869646 27.8284 0.697979 27.6566 0.697979 27.4205C0.697979 27.2058 0.869802 27.0125 1.1059 27.0125C1.34201 27.0125 1.53531 27.2058 1.53531 27.4205ZM27.9865 18.7467C27.9865 19.3908 27.5785 19.6911 26.8484 19.6911H25.4532V19.0469H26.8484C26.9773 19.0469 27.0847 19.0256 27.1278 18.9828C27.1706 18.9396 27.2136 18.8752 27.2136 18.7895C27.2136 18.7034 27.1708 18.6176 27.1278 18.5748C27.0847 18.5317 26.9989 18.5104 26.8701 18.5104C26.2047 18.4888 25.3672 18.5317 25.3672 17.5872C25.3672 17.1576 25.6463 16.6852 26.3977 16.6852H27.8361V17.3294H26.505C26.3764 17.3294 26.2903 17.3294 26.2259 17.3722C26.1615 17.4367 26.1187 17.5011 26.1187 17.6085C26.1187 17.7159 26.1831 17.7803 26.2689 17.8234C26.3549 17.8447 26.4408 17.8662 26.5482 17.8662H26.9345C27.3424 17.8662 27.6002 17.952 27.772 18.1025C27.9006 18.2527 27.9865 18.4461 27.9865 18.7467V18.7467ZM24.9592 18.1025C24.7873 17.952 24.5296 17.8662 24.1217 17.8662H23.7354C23.6282 17.8662 23.5421 17.8446 23.4563 17.8234C23.3703 17.7803 23.3061 17.7159 23.3061 17.6085C23.3061 17.5011 23.3275 17.4367 23.4134 17.3722C23.4778 17.3294 23.5636 17.3294 23.6924 17.3294H25.0236V16.6852H23.5852C22.8122 16.6852 22.5544 17.1576 22.5544 17.5872C22.5544 18.5316 23.3919 18.4888 24.0576 18.5104C24.1861 18.5104 24.2722 18.5317 24.315 18.5748C24.3578 18.6176 24.4011 18.7034 24.4011 18.7895C24.4011 18.8752 24.3579 18.9396 24.315 18.9828C24.2505 19.0256 24.1648 19.0469 24.0359 19.0469H22.6403V19.6911H24.0359C24.7657 19.6911 25.1738 19.3907 25.1738 18.7467C25.1738 18.4461 25.088 18.2527 24.9592 18.1025V18.1025ZM22.2109 19.0687H20.5151V18.4674H22.1681V17.8665H20.5151V17.3081H22.2109V16.6855H19.8065V19.6912H22.2109V19.0687ZM19.0334 16.8359C18.7972 16.707 18.5181 16.6854 18.1532 16.6854H16.5001V19.6911H17.2299V18.5962H18.003C18.2604 18.5962 18.4109 18.6178 18.5183 18.725C18.6471 18.8752 18.6471 19.1329 18.6471 19.3262V19.6911H19.3555V19.1113C19.3555 18.8323 19.3341 18.7034 19.2482 18.5532C19.1838 18.4671 19.0552 18.3599 18.8834 18.2955C19.0764 18.2313 19.3987 17.9736 19.3987 17.5011C19.3986 17.1578 19.2697 16.9645 19.0334 16.8359V16.8359ZM14.9542 16.6854H12.6568L11.7336 17.6731L10.8533 16.6854H7.95487V19.6911H10.8105L11.7337 18.7034L12.614 19.6911H14.0096V18.6822H14.9114C15.5339 18.6822 16.1568 18.5104 16.1568 17.6731C16.1566 16.8572 15.5125 16.6854 14.9542 16.6854ZM18.4537 17.9308C18.3465 17.9736 18.2391 17.9736 18.1102 17.9736L17.2299 17.9952V17.3079H18.1102C18.2391 17.3079 18.3679 17.3079 18.4537 17.3724C18.5398 17.4155 18.6039 17.5012 18.6039 17.6301C18.6039 17.759 18.5398 17.8664 18.4537 17.9308V17.9308ZM14.9542 18.081H14.0095V17.3079H14.9542C15.2119 17.3079 15.3836 17.4155 15.3836 17.6731C15.3836 17.9308 15.2118 18.081 14.9542 18.081ZM12.1845 18.1882L13.3009 17.0076V19.4336L12.1845 18.1882ZM10.4454 19.0687H8.66333V18.4674H10.2521V17.8665H8.66333V17.3081H10.4669L11.2612 18.1884L10.4454 19.0687V19.0687ZM25.9896 14.5169H24.9592L23.6065 12.2625V14.5169H22.1468L21.8674 13.8512H20.3646L20.0855 14.5169H19.2481C18.9046 14.5169 18.4537 14.431 18.1963 14.1733C17.96 13.9157 17.8311 13.5722 17.8311 13.0354C17.8311 12.5845 17.8956 12.1766 18.2174 11.8546C18.4321 11.6183 18.8187 11.5111 19.3123 11.5111H19.9993V12.1553H19.3123C19.0549 12.1553 18.9044 12.1982 18.7542 12.3271C18.6254 12.456 18.5609 12.6921 18.5609 13.0141C18.5609 13.3361 18.6254 13.5723 18.7542 13.7227C18.8615 13.8299 19.0549 13.8729 19.2479 13.8729H19.5701L20.6005 11.5112H21.6741L22.8764 14.3452V11.5111H23.993L25.2597 13.5937V11.5111H25.9895V14.5169H25.9896V14.5169ZM17.4662 11.5111H16.7364V14.5169H17.4662V11.5111V11.5111ZM15.9417 11.6399C15.7054 11.5111 15.448 11.5111 15.0831 11.5111H13.4297V14.5169H14.1382V13.4218H14.9111C15.1688 13.4218 15.3406 13.4433 15.4479 13.5507C15.5767 13.7011 15.5551 13.9588 15.5551 14.1305V14.5169H16.2849V13.9157C16.2849 13.6581 16.2636 13.5292 16.1563 13.3789C16.0919 13.293 15.963 13.1856 15.8128 13.1213C16.0058 13.0354 16.3282 12.7993 16.3282 12.3269C16.3283 11.9834 16.1778 11.7901 15.9417 11.6399ZM12.9144 13.8944H11.2398V13.2931H12.8929V12.6706H11.2398V12.1338H12.9144V11.5112H10.5098V14.5171H12.9144V13.8944ZM9.97302 11.5111H8.7922L7.91192 13.5507L6.9672 11.5111H5.80786V14.3451L4.58408 11.5111H3.51065L2.22244 14.5169H2.99534L3.2744 13.8512H4.77723L5.05629 14.5169H6.51632V12.1553L7.56827 14.5169H8.19082L9.24293 12.1553V14.5169H9.97286V11.5111H9.97302ZM21.61 13.2072L21.116 12.0264L20.6223 13.2072H21.61ZM15.3836 12.735C15.2764 12.7994 15.169 12.7994 15.0186 12.7994H14.1382V12.1339H15.0185C15.1473 12.1339 15.2974 12.1339 15.3834 12.1769C15.4692 12.2413 15.5123 12.3272 15.5123 12.456C15.5123 12.5847 15.4693 12.6919 15.3836 12.735V12.735ZM3.53198 13.2072L4.02581 12.0264L4.51965 13.2072H3.53198V13.2072ZM27.8148 2.08569H2.20081V12.9067L3.08109 10.91H4.9489L5.20663 11.4038V10.91H7.3966L7.89044 11.9834L8.3628 10.91H15.3406C15.6625 10.91 15.9415 10.9744 16.1565 11.1461V10.91H18.0672V11.1461C18.3891 10.9743 18.797 10.91 19.2695 10.91H22.0391L22.2968 11.4038V10.91H24.3365L24.6372 11.4038V10.91H26.6337V15.1181H24.6157L24.2294 14.4741V15.1181H21.7172L21.4382 14.4311H20.8153L20.5363 15.1181H19.2267C18.7114 15.1181 18.3248 14.9893 18.0674 14.8605V15.1181H14.9542V14.1519C14.9542 14.0231 14.9327 14.0016 14.8468 14.0016H14.7396V15.118H8.72777V14.5812L8.51314 15.118H7.24641L7.03179 14.6027V15.118H4.60556L4.34798 14.431H3.72528L3.44622 15.118H2.20081V27.8069H27.8148V20.099C27.5357 20.2278 27.1491 20.2923 26.7627 20.2923H24.8947V20.0345C24.6801 20.2065 24.2935 20.2923 23.9287 20.2923H18.0458V19.3262C18.0458 19.1974 18.0244 19.1974 17.9169 19.1974H17.8097V20.2923H15.8773V19.1544C15.5554 19.3046 15.1903 19.3046 14.8683 19.3046H14.6535V20.2923H12.2919L11.7337 19.6481L11.1112 20.2923H7.31069V16.0843H11.1753L11.7336 16.7282L12.3348 16.0843H14.9327C15.2331 16.0843 15.7271 16.1271 15.9417 16.3417V16.0843H18.2604C18.4966 16.0843 18.9477 16.1271 19.2481 16.3417V16.0843H22.7477V16.3419C22.941 16.1701 23.3061 16.0845 23.628 16.0845H25.5817V16.3419C25.7966 16.1917 26.097 16.0845 26.4836 16.0845H27.8148V2.08569V2.08569Z" fill="#0077A6"/>
</svg>
