<svg width="33" height="21" viewBox="0 0 33 21" fill="none" xmlns="http://www.w3.org/2000/svg">
<path d="M5.68416 5.10828C6.0485 4.91238 6.43713 4.8079 6.84033 4.8079C8.60536 4.8079 10.0789 6.82958 10.4157 9.51732L12.9175 8.69455C12.3443 4.12879 9.84089 0.691406 6.84033 0.691406C6.15213 0.691406 5.49308 0.871634 4.87451 1.20597L5.68416 5.10828Z" fill="#FFCB05"/>
<path d="M2.73226 18.184L4.42443 15.0992C3.66984 14.0205 3.19376 12.4454 3.19376 10.6902C3.19376 8.93752 3.66984 7.36249 4.42443 6.28635L2.73226 3.19897C1.44978 5.03259 0.640137 7.70988 0.640137 10.6902C0.640137 13.6731 1.44978 16.3503 2.73226 18.184" fill="#00A4E0"/>
<path d="M10.4157 11.8706C10.0773 14.5557 8.60537 16.5748 6.84195 16.5748C6.43713 16.5748 6.04688 16.4703 5.68416 16.2718L4.87451 20.1793C5.49308 20.5111 6.15375 20.6913 6.84195 20.6913C9.83927 20.6913 12.3411 17.2591 12.9175 12.6986L10.4157 11.8706Z" fill="#EF4123"/>
<path d="M15.1054 15.2271C15.0228 15.0129 14.9127 14.6708 14.8447 14.4174C14.4479 12.9338 14.4301 11.3979 14.7637 9.92477C15.1313 8.30795 15.834 7.07248 16.7425 6.44037C17.8841 5.64894 19.1455 5.80305 20.2401 6.85046C20.9348 7.49301 21.4271 8.48556 21.8011 9.89081C21.8481 10.071 21.8902 10.2617 21.9323 10.4263L15.1054 15.2271ZM17.3853 8.82512C16.5741 9.3867 16.1563 10.6143 16.2437 12.0509L19.6766 9.66618C19.0856 8.54825 18.318 8.17735 17.3853 8.82512V8.82512ZM20.1041 14.0125C20.1025 14.0125 20.1025 14.0151 20.1025 14.0151L20.0312 13.9368C19.8256 14.4722 19.5066 14.9084 19.1034 15.1905C18.3358 15.7286 17.625 15.5902 17.1133 14.8667L17.0663 14.9816C17.0663 14.9816 17.0663 14.979 17.0647 14.979L16.1935 17.0816C16.4105 17.3245 16.6421 17.5283 16.885 17.6928C17.8468 18.338 18.8314 18.3066 19.8013 17.6275C20.5025 17.1365 21.053 16.3894 21.4287 15.4413L20.1041 14.0125ZM24.3175 3.34778V15.0338L25.4445 15.7704L24.8049 18.1787L23.5613 17.3428C23.2828 17.1469 23.0917 16.8492 22.9492 16.5122C22.8116 16.17 22.7096 15.6973 22.7096 15.0652V3.34778H24.3175ZM27.2355 12.0588C27.2355 11.0636 27.5091 10.1703 27.9399 9.56432L26.7837 7.48517C26 8.6031 25.5061 10.2356 25.5061 12.0535C25.5045 13.8741 25.9983 15.5092 26.7805 16.6271L27.935 14.548C27.5059 13.9394 27.2355 13.0513 27.2355 12.0588V12.0588ZM29.2888 15.3734C29.0621 15.3734 28.8418 15.3107 28.6378 15.201L28.0856 17.8469C28.4629 18.0507 28.8661 18.163 29.2871 18.163C31.1169 18.1656 32.6439 16.0708 32.9986 13.289L31.3015 12.73C31.1088 14.2424 30.2814 15.376 29.2888 15.3734V15.3734ZM29.2936 5.95454C28.8742 5.95454 28.471 6.06425 28.0937 6.26537L28.641 8.91393C28.8467 8.80423 29.0653 8.74415 29.292 8.74415C30.2862 8.74676 31.1153 9.88559 31.3032 11.4005L33.0002 10.8468C32.652 8.05981 31.125 5.95716 29.2936 5.95454V5.95454Z" fill="white"/>
</svg>
